<svg xmlns="http://www.w3.org/2000/svg" viewBox="0 0 64 64">
  <circle cx="32" cy="32" r="22" fill="none" stroke="#1B2F5C" stroke-width="2.2"/>
  <line x1="56" y1="32" x2="59" y2="32" stroke="#1B2F5C" stroke-width="1.8" stroke-linecap="round"/>
  <line x1="52.78" y1="44" x2="55.38" y2="45.5" stroke="#1B2F5C" stroke-width="1.8" stroke-linecap="round"/>
  <line x1="44" y1="52.78" x2="45.5" y2="55.38" stroke="#1B2F5C" stroke-width="1.8" stroke-linecap="round"/>
  <line x1="32" y1="56" x2="32" y2="59" stroke="#1B2F5C" stroke-width="1.8" stroke-linecap="round"/>
  <line x1="20" y1="52.78" x2="18.5" y2="55.38" stroke="#1B2F5C" stroke-width="1.8" stroke-linecap="round"/>
  <line x1="11.22" y1="44" x2="8.62" y2="45.5" stroke="#1B2F5C" stroke-width="1.8" stroke-linecap="round"/>
  <line x1="8" y1="32" x2="5" y2="32" stroke="#1B2F5C" stroke-width="1.8" stroke-linecap="round"/>
  <line x1="11.22" y1="20" x2="8.62" y2="18.5" stroke="#1B2F5C" stroke-width="1.8" stroke-linecap="round"/>
  <line x1="20" y1="11.22" x2="18.5" y2="8.62" stroke="#1B2F5C" stroke-width="1.8" stroke-linecap="round"/>
  <line x1="32" y1="8" x2="32" y2="5" stroke="#1B2F5C" stroke-width="1.8" stroke-linecap="round"/>
  <line x1="44" y1="11.22" x2="45.5" y2="8.62" stroke="#1B2F5C" stroke-width="1.8" stroke-linecap="round"/>
  <line x1="52.78" y1="20" x2="55.38" y2="18.5" stroke="#1B2F5C" stroke-width="1.8" stroke-linecap="round"/>
  <path fill="#1B2F5C" d="M 22 23 L 34 23 L 34 25 L 30 25 L 30 39 L 43 39 L 43 41 L 41 41 L 41 43 L 22 43 L 22 39 L 26 39 L 26 25 L 22 25 Z"/>
</svg>
